<svg xmlns="http://www.w3.org/2000/svg" version="1.1" xmlns:xlink="http://www.w3.org/1999/xlink" width="1000" height="1000"><g clip-path="url(#SvgjsClipPath1006)"><rect width="1000" height="1000" fill="#ffffff"></rect><g transform="matrix(29.166666666666668,0,0,29.166666666666668,150,150)"><svg xmlns="http://www.w3.org/2000/svg" version="1.1" xmlns:xlink="http://www.w3.org/1999/xlink" width="24" height="24"><svg xmlns="http://www.w3.org/2000/svg" width="24" height="24" viewBox="0 0 24 24" fill="none" stroke="currentColor" stroke-width="2" stroke-linecap="round" stroke-linejoin="round" class="lucide lucide-box-icon lucide-box"><path d="M21 8a2 2 0 0 0-1-1.73l-7-4a2 2 0 0 0-2 0l-7 4A2 2 0 0 0 3 8v8a2 2 0 0 0 1 1.73l7 4a2 2 0 0 0 2 0l7-4A2 2 0 0 0 21 16Z"></path><path d="m3.3 7 8.7 5 8.7-5"></path><path d="M12 22V12"></path></svg></svg></g></g><defs><clipPath id="SvgjsClipPath1006"><rect width="1000" height="1000" x="0" y="0" rx="350" ry="350"></rect></clipPath></defs></svg>